<svg width="111" height="28" viewBox="0 0 111 28" fill="none" xmlns="http://www.w3.org/2000/svg">
<path d="M0.812 27H6.668V13.68C6.668 11.584 6.964 9.968 7.556 8.832C8.164 7.68 8.932 6.888 9.86 6.456C10.804 6.008 11.764 5.784 12.74 5.784C14.116 5.784 15.212 6.088 16.028 6.696C16.844 7.288 17.444 8.048 17.828 8.976C18.228 9.888 18.484 10.84 18.596 11.832C18.724 12.824 18.788 13.72 18.788 14.52V27H24.644V12.528C24.644 11.92 24.588 11.112 24.476 10.104C24.38 9.096 24.156 8.032 23.804 6.912C23.452 5.792 22.908 4.736 22.172 3.744C21.436 2.736 20.436 1.92 19.172 1.296C17.924 0.655998 16.348 0.335999 14.444 0.335999C12.572 0.335999 10.924 0.663999 9.5 1.32C8.092 1.96 6.916 2.84 5.972 3.96V1.08H0.812V27ZM42.269 27.72C44.765 27.72 47.045 27.08 49.109 25.8C51.189 24.504 52.725 22.68 53.717 20.328L48.005 18.6C46.853 21.064 44.829 22.296 41.933 22.296C39.965 22.296 38.413 21.728 37.277 20.592C36.141 19.44 35.461 17.792 35.237 15.648H54.005C54.229 12.528 53.885 9.824 52.973 7.536C52.061 5.248 50.661 3.48 48.773 2.232C46.901 0.983999 44.621 0.36 41.933 0.36C39.389 0.36 37.149 0.935999 35.213 2.088C33.277 3.224 31.765 4.84 30.677 6.936C29.589 9.032 29.045 11.496 29.045 14.328C29.045 16.952 29.597 19.272 30.701 21.288C31.821 23.304 33.373 24.88 35.357 26.016C37.341 27.152 39.645 27.72 42.269 27.72ZM42.173 5.424C43.965 5.424 45.341 5.896 46.301 6.84C47.277 7.768 47.893 9.248 48.149 11.28H35.381C36.069 7.376 38.333 5.424 42.173 5.424Z" fill="#004C4F"/>
<path d="M59.312 27H65.168V13.68C65.168 11.584 65.464 9.968 66.056 8.832C66.664 7.68 67.432 6.888 68.36 6.456C69.304 6.008 70.264 5.784 71.24 5.784C72.616 5.784 73.712 6.088 74.528 6.696C75.344 7.288 75.944 8.048 76.328 8.976C76.728 9.888 76.984 10.84 77.096 11.832C77.224 12.824 77.288 13.72 77.288 14.52V27H83.144V12.528C83.144 11.92 83.088 11.112 82.976 10.104C82.88 9.096 82.656 8.032 82.304 6.912C81.952 5.792 81.408 4.736 80.672 3.744C79.936 2.736 78.936 1.92 77.672 1.296C76.424 0.655998 74.848 0.335999 72.944 0.335999C71.072 0.335999 69.424 0.663999 68 1.32C66.592 1.96 65.416 2.84 64.472 3.96V1.08H59.312V27ZM96.6549 27.72C98.7189 27.72 100.471 27.384 101.911 26.712C103.367 26.024 104.647 24.96 105.751 23.52V27H110.815V11.088C110.815 9.968 110.767 8.936 110.671 7.992C110.575 7.032 110.295 6.096 109.831 5.184C108.983 3.472 107.679 2.24 105.919 1.488C104.175 0.735999 102.151 0.36 99.8469 0.36C96.8069 0.36 94.3829 1.024 92.5749 2.352C90.7669 3.68 89.5429 5.44 88.9029 7.632L94.1829 9.288C94.6149 7.96 95.3749 7.024 96.4629 6.48C97.5509 5.936 98.6789 5.664 99.8469 5.664C101.607 5.664 102.903 6.024 103.735 6.744C104.567 7.448 105.039 8.544 105.151 10.032C102.879 10.368 100.767 10.696 98.8149 11.016C96.8789 11.32 95.2309 11.696 93.8709 12.144C91.8229 12.848 90.3269 13.848 89.3829 15.144C88.4389 16.424 87.9669 18.008 87.9669 19.896C87.9669 21.32 88.2949 22.624 88.9509 23.808C89.6229 24.992 90.6069 25.944 91.9029 26.664C93.1989 27.368 94.7829 27.72 96.6549 27.72ZM97.8069 23.112C96.4469 23.112 95.4069 22.8 94.6869 22.176C93.9829 21.552 93.6309 20.768 93.6309 19.824C93.6309 18.976 93.9029 18.288 94.4469 17.76C95.0069 17.232 95.7829 16.784 96.7749 16.416C97.6869 16.112 98.7829 15.848 100.063 15.624C101.343 15.384 103.015 15.104 105.079 14.784C105.063 15.392 105.023 16.072 104.959 16.824C104.895 17.56 104.743 18.224 104.503 18.816C104.311 19.408 103.935 20.04 103.375 20.712C102.831 21.384 102.095 21.952 101.167 22.416C100.239 22.88 99.1189 23.112 97.8069 23.112Z" fill="#26B1B7"/>
</svg>
