<svg width="111" height="28" viewBox="0 0 111 28" fill="none" xmlns="http://www.w3.org/2000/svg">
<path d="M0.312 27H6.168V13.68C6.168 11.584 6.464 9.968 7.056 8.832C7.664 7.68 8.432 6.888 9.36 6.456C10.304 6.008 11.264 5.784 12.24 5.784C13.616 5.784 14.712 6.088 15.528 6.696C16.344 7.288 16.944 8.048 17.328 8.976C17.728 9.888 17.984 10.84 18.096 11.832C18.224 12.824 18.288 13.72 18.288 14.52V27H24.144V12.528C24.144 11.92 24.088 11.112 23.976 10.104C23.88 9.096 23.656 8.032 23.304 6.912C22.952 5.792 22.408 4.736 21.672 3.744C20.936 2.736 19.936 1.92 18.672 1.296C17.424 0.655998 15.848 0.335999 13.944 0.335999C12.072 0.335999 10.424 0.663999 9 1.32C7.592 1.96 6.416 2.84 5.472 3.96V1.08H0.312V27ZM41.769 27.72C44.265 27.72 46.545 27.08 48.609 25.8C50.689 24.504 52.225 22.68 53.217 20.328L47.505 18.6C46.353 21.064 44.329 22.296 41.433 22.296C39.465 22.296 37.913 21.728 36.777 20.592C35.641 19.44 34.961 17.792 34.737 15.648H53.505C53.729 12.528 53.385 9.824 52.473 7.536C51.561 5.248 50.161 3.48 48.273 2.232C46.401 0.983999 44.121 0.36 41.433 0.36C38.889 0.36 36.649 0.935999 34.713 2.088C32.777 3.224 31.265 4.84 30.177 6.936C29.089 9.032 28.545 11.496 28.545 14.328C28.545 16.952 29.097 19.272 30.201 21.288C31.321 23.304 32.873 24.88 34.857 26.016C36.841 27.152 39.145 27.72 41.769 27.72ZM41.673 5.424C43.465 5.424 44.841 5.896 45.801 6.84C46.777 7.768 47.393 9.248 47.649 11.28H34.881C35.569 7.376 37.833 5.424 41.673 5.424Z" fill="white"/>
<path d="M58.812 27H64.668V13.68C64.668 11.584 64.964 9.968 65.556 8.832C66.164 7.68 66.932 6.888 67.86 6.456C68.804 6.008 69.764 5.784 70.74 5.784C72.116 5.784 73.212 6.088 74.028 6.696C74.844 7.288 75.444 8.048 75.828 8.976C76.228 9.888 76.484 10.84 76.596 11.832C76.724 12.824 76.788 13.72 76.788 14.52V27H82.644V12.528C82.644 11.92 82.588 11.112 82.476 10.104C82.38 9.096 82.156 8.032 81.804 6.912C81.452 5.792 80.908 4.736 80.172 3.744C79.436 2.736 78.436 1.92 77.172 1.296C75.924 0.655998 74.348 0.335999 72.444 0.335999C70.572 0.335999 68.924 0.663999 67.5 1.32C66.092 1.96 64.916 2.84 63.972 3.96V1.08H58.812V27ZM96.1549 27.72C98.2189 27.72 99.9709 27.384 101.411 26.712C102.867 26.024 104.147 24.96 105.251 23.52V27H110.315V11.088C110.315 9.968 110.267 8.936 110.171 7.992C110.075 7.032 109.795 6.096 109.331 5.184C108.483 3.472 107.179 2.24 105.419 1.488C103.675 0.735999 101.651 0.36 99.3469 0.36C96.3069 0.36 93.8829 1.024 92.0749 2.352C90.2669 3.68 89.0429 5.44 88.4029 7.632L93.6829 9.288C94.1149 7.96 94.8749 7.024 95.9629 6.48C97.0509 5.936 98.1789 5.664 99.3469 5.664C101.107 5.664 102.403 6.024 103.235 6.744C104.067 7.448 104.539 8.544 104.651 10.032C102.379 10.368 100.267 10.696 98.3149 11.016C96.3789 11.32 94.7309 11.696 93.3709 12.144C91.3229 12.848 89.8269 13.848 88.8829 15.144C87.9389 16.424 87.4669 18.008 87.4669 19.896C87.4669 21.32 87.7949 22.624 88.4509 23.808C89.1229 24.992 90.1069 25.944 91.4029 26.664C92.6989 27.368 94.2829 27.72 96.1549 27.72ZM97.3069 23.112C95.9469 23.112 94.9069 22.8 94.1869 22.176C93.4829 21.552 93.1309 20.768 93.1309 19.824C93.1309 18.976 93.4029 18.288 93.9469 17.76C94.5069 17.232 95.2829 16.784 96.2749 16.416C97.1869 16.112 98.2829 15.848 99.5629 15.624C100.843 15.384 102.515 15.104 104.579 14.784C104.563 15.392 104.523 16.072 104.459 16.824C104.395 17.56 104.243 18.224 104.003 18.816C103.811 19.408 103.435 20.04 102.875 20.712C102.331 21.384 101.595 21.952 100.667 22.416C99.7389 22.88 98.6189 23.112 97.3069 23.112Z" fill="#002526"/>
</svg>
